<svg width="14" height="19" viewBox="0 0 14 19" fill="none" xmlns="http://www.w3.org/2000/svg">
    <path fillRule="evenodd" clipRule="evenodd" d="M10.9571 3.04289C11.7108 3.79657 12 4.84586 12 6H10C10 5.15414 9.78921 4.70343 9.54289 4.45711C9.29657 4.21079 8.84586 4 8 4V2C9.15414 2 10.2034 2.28921 10.9571 3.04289Z" fill="black" />
    <path d="M9 0L6 3L9 6V0Z" fill="black" />
    <path fillRule="evenodd" clipRule="evenodd" d="M3 2C2.44772 2 2 2.44772 2 3C2 3.55228 2.44772 4 3 4C3.55228 4 4 3.55228 4 3C4 2.44772 3.55228 2 3 2ZM6 3C6 4.65685 4.65685 6 3 6C1.34315 6 0 4.65685 0 3C0 1.34315 1.34315 0 3 0C4.65685 0 6 1.34315 6 3Z" fill="black" />
    <path fillRule="evenodd" clipRule="evenodd" d="M4 3V16C4 15.4477 3.55228 15 3 15C2.44772 15 2 15.4477 2 16V3C2 3.55228 2.44772 4 3 4C3.55228 4 4 3.55228 4 3ZM4 3C4 2.44772 3.55228 2 3 2C2.44772 2 2 2.44772 2 3V1H4V3ZM2 16C2 16.5523 2.44772 17 3 17C3.55228 17 4 16.5523 4 16V18H2V16Z" fill="black" />
    <path fillRule="evenodd" clipRule="evenodd" d="M3 15C2.44772 15 2 15.4477 2 16C2 16.5523 2.44772 17 3 17C3.55228 17 4 16.5523 4 16C4 15.4477 3.55228 15 3 15ZM6 16C6 17.6569 4.65685 19 3 19C1.34315 19 0 17.6569 0 16C0 14.3431 1.34315 13 3 13C4.65685 13 6 14.3431 6 16Z" fill="black" />
    <path fillRule="evenodd" clipRule="evenodd" d="M12 16V6H10V16V18H12V16ZM12 16C12 15.4477 11.5523 15 11 15C10.4477 15 10 15.4477 10 16C10 16.5523 10.4477 17 11 17C11.5523 17 12 16.5523 12 16Z" fill="black" />
    <path fillRule="evenodd" clipRule="evenodd" d="M11 15C10.4477 15 10 15.4477 10 16C10 16.5523 10.4477 17 11 17C11.5523 17 12 16.5523 12 16C12 15.4477 11.5523 15 11 15ZM14 16C14 17.6569 12.6569 19 11 19C9.34315 19 8 17.6569 8 16C8 14.3431 9.34315 13 11 13C12.6569 13 14 14.3431 14 16Z" fill="black" />
  </svg>